<?xml version="1.0" encoding="utf-8"?>
<!-- Generator: Adobe Illustrator 16.0.0, SVG Export Plug-In . SVG Version: 6.00 Build 0)  -->
<!DOCTYPE svg PUBLIC "-//W3C//DTD SVG 1.1//EN" "http://www.w3.org/Graphics/SVG/1.1/DTD/svg11.dtd">
<svg version="1.1" id="Layer_1" xmlns="http://www.w3.org/2000/svg" xmlns:xlink="http://www.w3.org/1999/xlink" x="0px" y="0px"
	 width="1447.588px" height="588.013px" viewBox="0 -242.988 1447.588 588.013"
	 enable-background="new 0 -242.988 1447.588 588.013" xml:space="preserve">
<desc>Created with Sketch.</desc>
<polygon fill="#FFFFFF" points="0,342.395 1447.588,342.395 1447.589,-8.66 0,307.694 "/>
<polygon fill="#005B93" points="0,-242.988 0,-204.473 175.682,-242.988 "/>
<polygon fill="#026FB2" points="0,-134.889 493.086,-242.988 138.181,-242.988 0,-212.695 "/>
<polygon fill="#0183E8" points="0,-57.126 847.801,-242.988 492.896,-242.988 0,-134.931 "/>
<polygon fill="#008EEF" points="0,19.715 1198.31,-242.988 843.405,-242.988 0,-58.09 "/>
<polygon fill="#029CF4" points="1447.589,-242.988 1198.344,-242.988 0,19.722 0,97.527 1447.589,-219.824 "/>
<polygon fill="#03A7F9" points="1447.588,-224.839 0,92.511 0,170.317 1447.588,-147.034 "/>
<polygon fill="#06B9FF" points="1447.589,-153.944 0,163.407 0,241.213 1447.589,-76.139 "/>
<polygon fill="#48CBFF" points="1447.589,-86.466 0,230.885 0,308.69 1447.589,-8.66 "/>
</svg>
