<?xml version="1.0" encoding="utf-8"?>
<!-- Generator: Adobe Illustrator 16.0.0, SVG Export Plug-In . SVG Version: 6.00 Build 0)  -->
<!DOCTYPE svg PUBLIC "-//W3C//DTD SVG 1.1//EN" "http://www.w3.org/Graphics/SVG/1.1/DTD/svg11.dtd">
<svg version="1.1" xmlns="http://www.w3.org/2000/svg" xmlns:xlink="http://www.w3.org/1999/xlink" x="0px" y="0px"
	 width="1447.588px" height="588.013px" viewBox="0 -242.988 1447.588 588.013"
	 enable-background="new 0 -242.988 1447.588 588.013" xml:space="preserve">
<g id="Layer_1">
	<desc>Created with Sketch.</desc>
	<polygon fill="#FFFFFF" points="0,342.395 1447.588,342.395 1447.589,-8.66 0,307.694 	"/>
</g>
<g id="Layer_2">
	<g opacity="0.2">
		<path fill="none" stroke="#FFFFFF" stroke-width="9" stroke-linejoin="round" stroke-miterlimit="10" d="M235.543-103.466
			c0,9.35-7.65,17-17,17H54.419c-9.35,0-17-7.65-17-17v-84.007c0-9.35,7.65-17,17-17h164.124c9.35,0,17,7.65,17,17V-103.466z"/>
	</g>
	<g opacity="0.2">
		<path fill="none" stroke="#FFFFFF" stroke-width="9" stroke-linejoin="round" stroke-miterlimit="10" d="M471.002-103.466
			c0,9.35-7.65,17-17,17H289.878c-9.35,0-17-7.65-17-17v-84.007c0-9.35,7.65-17,17-17h164.124c9.35,0,17,7.65,17,17V-103.466z"/>
	</g>
	<g opacity="0.2">
		<path fill="none" stroke="#FFFFFF" stroke-width="9" stroke-linejoin="round" stroke-miterlimit="10" d="M706.461-103.466
			c0,9.35-7.65,17-17,17H525.338c-9.35,0-17-7.65-17-17v-84.007c0-9.35,7.65-17,17-17h164.124c9.35,0,17,7.65,17,17V-103.466z"/>
	</g>
	<g opacity="0.2">
		<path fill="none" stroke="#FFFFFF" stroke-width="9" stroke-linejoin="round" stroke-miterlimit="10" d="M941.92-103.466
			c0,9.35-7.65,17-17,17H760.797c-9.35,0-17-7.65-17-17v-84.007c0-9.35,7.65-17,17-17H924.92c9.35,0,17,7.65,17,17V-103.466z"/>
	</g>
	<g opacity="0.2">
		<path fill="none" stroke="#FFFFFF" stroke-width="9" stroke-linejoin="round" stroke-miterlimit="10" d="M1177.38-103.466
			c0,9.35-7.65,17-17,17H996.257c-9.35,0-17-7.65-17-17v-84.007c0-9.35,7.65-17,17-17h164.123c9.35,0,17,7.65,17,17V-103.466z"/>
	</g>
	<g opacity="0.2">
		<path fill="none" stroke="#FFFFFF" stroke-width="9" stroke-linejoin="round" stroke-miterlimit="10" d="M1412.839-103.466
			c0,9.35-7.65,17-17,17h-164.123c-9.35,0-17-7.65-17-17v-84.007c0-9.35,7.65-17,17-17h164.123c9.35,0,17,7.65,17,17V-103.466z"/>
	</g>
	<g opacity="0.2">
		<path fill="none" stroke="#FFFFFF" stroke-width="9" stroke-linejoin="round" stroke-miterlimit="10" d="M234.208,43.881
			c0,9.35-7.65,17-17,17H53.084c-9.35,0-17-7.65-17-17v-84.007c0-9.35,7.65-17,17-17h164.124c9.35,0,17,7.65,17,17V43.881z"/>
	</g>
	<g opacity="0.2">
		<path fill="none" stroke="#FFFFFF" stroke-width="9" stroke-linejoin="round" stroke-miterlimit="10" d="M469.667,43.881
			c0,9.35-7.65,17-17,17H288.543c-9.35,0-17-7.65-17-17v-84.007c0-9.35,7.65-17,17-17h164.124c9.35,0,17,7.65,17,17V43.881z"/>
	</g>
	<g opacity="0.2">
		<path fill="none" stroke="#FFFFFF" stroke-width="9" stroke-linejoin="round" stroke-miterlimit="10" d="M705.126,43.881
			c0,9.35-7.65,17-17,17H524.003c-9.35,0-17-7.65-17-17v-84.007c0-9.35,7.65-17,17-17h164.124c9.35,0,17,7.65,17,17V43.881z"/>
	</g>
	<g opacity="0.2">
		<path fill="none" stroke="#FFFFFF" stroke-width="9" stroke-linejoin="round" stroke-miterlimit="10" d="M940.585,43.881
			c0,9.35-7.65,17-17,17H759.462c-9.35,0-17-7.65-17-17v-84.007c0-9.35,7.65-17,17-17h164.123c9.35,0,17,7.65,17,17V43.881z"/>
	</g>
	<g opacity="0.2">
		<path fill="none" stroke="#FFFFFF" stroke-width="9" stroke-linejoin="round" stroke-miterlimit="10" d="M1176.045,43.881
			c0,9.35-7.65,17-17,17H994.922c-9.35,0-17-7.65-17-17v-84.007c0-9.35,7.65-17,17-17h164.123c9.35,0,17,7.65,17,17V43.881z"/>
	</g>
	<g opacity="0.2">
		<path fill="none" stroke="#FFFFFF" stroke-width="9" stroke-linejoin="round" stroke-miterlimit="10" d="M1411.504,43.881
			c0,9.35-7.65,17-17,17h-164.123c-9.35,0-17-7.65-17-17v-84.007c0-9.35,7.65-17,17-17h164.123c9.35,0,17,7.65,17,17V43.881z"/>
	</g>
	<g opacity="0.2">
		<path fill="none" stroke="#FFFFFF" stroke-width="9" stroke-linejoin="round" stroke-miterlimit="10" d="M235.543,198.534
			c0,9.35-7.65,17-17,17H54.419c-9.35,0-17-7.65-17-17v-84.007c0-9.35,7.65-17,17-17h164.124c9.35,0,17,7.65,17,17V198.534z"/>
	</g>
	<g opacity="0.2">
		<path fill="none" stroke="#FFFFFF" stroke-width="9" stroke-linejoin="round" stroke-miterlimit="10" d="M471.002,198.534
			c0,9.35-7.65,17-17,17H289.878c-9.35,0-17-7.65-17-17v-84.007c0-9.35,7.65-17,17-17h164.124c9.35,0,17,7.65,17,17V198.534z"/>
	</g>
	<g opacity="0.2">
		<path fill="none" stroke="#FFFFFF" stroke-width="9" stroke-linejoin="round" stroke-miterlimit="10" d="M706.461,198.534
			c0,9.35-7.65,17-17,17H525.338c-9.35,0-17-7.65-17-17v-84.007c0-9.35,7.65-17,17-17h164.124c9.35,0,17,7.65,17,17V198.534z"/>
	</g>
	<g opacity="0.2">
		<path fill="none" stroke="#FFFFFF" stroke-width="9" stroke-linejoin="round" stroke-miterlimit="10" d="M941.92,198.534
			c0,9.35-7.65,17-17,17H760.797c-9.35,0-17-7.65-17-17v-84.007c0-9.35,7.65-17,17-17H924.92c9.35,0,17,7.65,17,17V198.534z"/>
	</g>
	<g opacity="0.2">
		<path fill="none" stroke="#FFFFFF" stroke-width="9" stroke-linejoin="round" stroke-miterlimit="10" d="M1177.38,198.534
			c0,9.35-7.65,17-17,17H996.257c-9.35,0-17-7.65-17-17v-84.007c0-9.35,7.65-17,17-17h164.123c9.35,0,17,7.65,17,17V198.534z"/>
	</g>
	<g opacity="0.2">
		<path fill="none" stroke="#FFFFFF" stroke-width="9" stroke-linejoin="round" stroke-miterlimit="10" d="M1412.839,198.534
			c0,9.35-7.65,17-17,17h-164.123c-9.35,0-17-7.65-17-17v-84.007c0-9.35,7.65-17,17-17h164.123c9.35,0,17,7.65,17,17V198.534z"/>
	</g>
	<g opacity="0.2">
		<path fill="none" stroke="#FFFFFF" stroke-width="9" stroke-linejoin="round" stroke-miterlimit="10" d="M234.208,315.012
			c0,9.35-7.65,17-17,17H53.085c-9.35,0-17-7.65-17-17v-56.801c0-9.35,7.65-17,17-17h164.124c9.35,0,17,7.65,17,17V315.012z"/>
	</g>
	<g opacity="0.2">
		<path fill="none" stroke="#FFFFFF" stroke-width="9" stroke-linejoin="round" stroke-miterlimit="10" d="M452.667,332.012
			c9.35,0,17-7.65,17-17v-56.801c0-9.35-7.65-17-17-17H288.544c-9.35,0-17,7.65-17,17v56.801c0,9.35,7.65,17,17,17H452.667z"/>
	</g>
</g>
</svg>
