<?xml version="1.0" encoding="utf-8"?>
<!-- Generator: Adobe Illustrator 16.0.0, SVG Export Plug-In . SVG Version: 6.00 Build 0)  -->
<!DOCTYPE svg PUBLIC "-//W3C//DTD SVG 1.1//EN" "http://www.w3.org/Graphics/SVG/1.1/DTD/svg11.dtd">
<svg version="1.1" id="Layer_1" xmlns="http://www.w3.org/2000/svg" xmlns:xlink="http://www.w3.org/1999/xlink" x="0px" y="0px"
	 width="1447.588px" height="588.012px" viewBox="0 0 1447.588 588.012" enable-background="new 0 0 1447.588 588.012"
	 xml:space="preserve">
<g id="Layer_1_1_">
	<desc>Created with Sketch.</desc>
	<polygon fill="#FFFFFF" points="0,34.701 1447.589,351.055 1447.588,0 0,0 	"/>
</g>
<g id="Layer_2">
	<g opacity="0.2">
		<path fill="none" stroke="#FFFFFF" stroke-width="9" stroke-linejoin="round" stroke-miterlimit="10" d="M235.543,529.868
			c0,9.35-7.65,17-17,17H54.419c-9.35,0-17-7.65-17-17v-84.007c0-9.35,7.65-17,17-17h164.124c9.35,0,17,7.65,17,17V529.868z"/>
	</g>
	<g opacity="0.2">
		<path fill="none" stroke="#FFFFFF" stroke-width="9" stroke-linejoin="round" stroke-miterlimit="10" d="M471.002,445.861v84.007
			c0,9.35-7.65,17-17,17H289.878c-9.35,0-17-7.65-17-17v-84.007c0-9.35,7.65-17,17-17h164.124
			C463.352,428.861,471.002,436.511,471.002,445.861L471.002,445.861z"/>
	</g>
	<g opacity="0.2">
		<path fill="none" stroke="#FFFFFF" stroke-width="9" stroke-linejoin="round" stroke-miterlimit="10" d="M706.462,445.861v84.007
			c0,9.35-7.649,17-17,17H525.338c-9.35,0-17-7.65-17-17v-84.007c0-9.35,7.65-17,17-17h164.123
			C698.811,428.861,706.461,436.511,706.462,445.861L706.462,445.861z"/>
	</g>
	<g opacity="0.2">
		<path fill="none" stroke="#FFFFFF" stroke-width="9" stroke-linejoin="round" stroke-miterlimit="10" d="M941.92,529.868
			c0,9.35-7.65,17-17,17H760.797c-9.35,0-17-7.65-17-17v-84.007c0-9.35,7.65-17,17-17H924.92c9.35,0,17,7.65,17,17V529.868z"/>
	</g>
	<g opacity="0.2">
		<path fill="none" stroke="#FFFFFF" stroke-width="9" stroke-linejoin="round" stroke-miterlimit="10" d="M1177.38,529.868
			c0,9.35-7.649,17-17,17H996.257c-9.35,0-17-7.65-17-17v-84.007c0-9.35,7.65-17,17-17h164.123c9.351,0,17,7.65,17,17V529.868z"/>
	</g>
	<g opacity="0.2">
		<path fill="none" stroke="#FFFFFF" stroke-width="9" stroke-linejoin="round" stroke-miterlimit="10" d="M1412.839,529.868
			c0,9.35-7.649,17-17,17h-164.123c-9.35,0-17-7.65-17-17v-84.007c0-9.35,7.65-17,17-17h164.123c9.351,0,17,7.65,17,17V529.868z"/>
	</g>
	<g opacity="0.2">
		<path fill="none" stroke="#FFFFFF" stroke-width="9" stroke-linejoin="round" stroke-miterlimit="10" d="M234.208,382.521
			c0,9.351-7.65,17-17,17H53.084c-9.35,0-17-7.649-17-17v-84.007c0-9.35,7.65-17,17-17h164.124c9.35,0,17,7.65,17,17V382.521z"/>
	</g>
	<g opacity="0.2">
		<path fill="none" stroke="#FFFFFF" stroke-width="9" stroke-linejoin="round" stroke-miterlimit="10" d="M469.667,382.521
			c0,9.351-7.65,17-17,17H288.543c-9.35,0-17-7.649-17-17v-84.007c0-9.35,7.65-17,17-17h164.124c9.35,0,17,7.65,17,17V382.521z"/>
	</g>
	<g opacity="0.2">
		<path fill="none" stroke="#FFFFFF" stroke-width="9" stroke-linejoin="round" stroke-miterlimit="10" d="M705.127,298.514v84.007
			c0,9.351-7.65,17-17,17H524.003c-9.35,0-17-7.649-17-17v-84.007c0-9.35,7.65-17,17-17h164.123
			C697.476,281.514,705.126,289.164,705.127,298.514L705.127,298.514z"/>
	</g>
	<g opacity="0.2">
		<path fill="none" stroke="#FFFFFF" stroke-width="9" stroke-linejoin="round" stroke-miterlimit="10" d="M940.585,298.514v84.007
			c0,9.351-7.65,17-17,17H759.462c-9.35,0-17-7.649-17-17v-84.007c0-9.35,7.65-17,17-17h164.123
			C932.935,281.514,940.585,289.164,940.585,298.514L940.585,298.514z"/>
	</g>
	<g opacity="0.2">
		<path fill="none" stroke="#FFFFFF" stroke-width="9" stroke-linejoin="round" stroke-miterlimit="10" d="M1176.045,382.521
			c0,9.351-7.65,17-17,17H994.922c-9.35,0-17-7.649-17-17v-84.007c0-9.35,7.65-17,17-17h164.123c9.35,0,17,7.65,17,17V382.521z"/>
	</g>
	<g opacity="0.2">
		<path fill="none" stroke="#FFFFFF" stroke-width="9" stroke-linejoin="round" stroke-miterlimit="10" d="M1411.504,382.521
			c0,9.351-7.65,17-17,17h-164.123c-9.35,0-17-7.649-17-17v-84.007c0-9.35,7.65-17,17-17h164.123c9.35,0,17,7.65,17,17V382.521z"/>
	</g>
	<g opacity="0.2">
		<path fill="none" stroke="#FFFFFF" stroke-width="9" stroke-linejoin="round" stroke-miterlimit="10" d="M235.543,227.868
			c0,9.35-7.65,17-17,17H54.419c-9.35,0-17-7.65-17-17v-84.007c0-9.35,7.65-17,17-17h164.124c9.35,0,17,7.65,17,17V227.868z"/>
	</g>
	<g opacity="0.2">
		<path fill="none" stroke="#FFFFFF" stroke-width="9" stroke-linejoin="round" stroke-miterlimit="10" d="M471.002,143.861v84.007
			c0,9.35-7.65,17-17,17H289.878c-9.35,0-17-7.65-17-17v-84.007c0-9.35,7.65-17,17-17h164.124
			C463.352,126.861,471.002,134.511,471.002,143.861L471.002,143.861z"/>
	</g>
	<g opacity="0.2">
		<path fill="none" stroke="#FFFFFF" stroke-width="9" stroke-linejoin="round" stroke-miterlimit="10" d="M706.462,143.861v84.007
			c0,9.35-7.649,17-17,17H525.338c-9.35,0-17-7.65-17-17v-84.007c0-9.35,7.65-17,17-17h164.123
			C698.811,126.861,706.461,134.511,706.462,143.861L706.462,143.861z"/>
	</g>
	<g opacity="0.2">
		<path fill="none" stroke="#FFFFFF" stroke-width="9" stroke-linejoin="round" stroke-miterlimit="10" d="M941.92,227.868
			c0,9.35-7.65,17-17,17H760.797c-9.35,0-17-7.65-17-17v-84.007c0-9.35,7.65-17,17-17H924.92c9.35,0,17,7.65,17,17V227.868z"/>
	</g>
	<g opacity="0.2">
		<path fill="none" stroke="#FFFFFF" stroke-width="9" stroke-linejoin="round" stroke-miterlimit="10" d="M1177.38,227.868
			c0,9.35-7.649,17-17,17H996.257c-9.35,0-17-7.65-17-17v-84.007c0-9.35,7.65-17,17-17h164.123c9.351,0,17,7.65,17,17V227.868z"/>
	</g>
	<g opacity="0.2">
		<path fill="none" stroke="#FFFFFF" stroke-width="9" stroke-linejoin="round" stroke-miterlimit="10" d="M1412.839,227.868
			c0,9.35-7.649,17-17,17h-164.123c-9.35,0-17-7.65-17-17v-84.007c0-9.35,7.65-17,17-17h164.123c9.351,0,17,7.65,17,17V227.868z"/>
	</g>
	<g opacity="0.2">
		<path fill="none" stroke="#FFFFFF" stroke-width="9" stroke-linejoin="round" stroke-miterlimit="10" d="M234.209,27.383v56.801
			c0,9.35-7.65,17-17,17H53.085c-9.35,0-17-7.65-17-17V27.383c0-9.35,7.65-17,17-17h164.123
			C226.558,10.383,234.208,18.033,234.209,27.383L234.209,27.383z"/>
	</g>
	<g opacity="0.2">
		<path fill="none" stroke="#FFFFFF" stroke-width="9" stroke-linejoin="round" stroke-miterlimit="10" d="M288.544,10.383
			c-9.35,0-17,7.65-17,17v56.801c0,9.35,7.65,17,17,17h164.123c9.35,0,17-7.65,17-17V27.383c0-9.35-7.65-17-17-17H288.544z"/>
	</g>
</g>
</svg>
